<?xml version="1.0" encoding="UTF-8"?>
<svg width="182px" height="56px" viewBox="0 0 182 56" version="1.1" xmlns="http://www.w3.org/2000/svg" xmlns:xlink="http://www.w3.org/1999/xlink">
    <!-- Generator: Sketch 52.3 (67297) - http://www.bohemiancoding.com/sketch -->
    <title>[UA]-snap-store-white-uneditable</title>
    <desc>Created with Sketch.</desc>
    <g id="[UA]-snap-store-white-uneditable" stroke="none" stroke-width="1" fill="none" fill-rule="evenodd">
        <rect id="Rectangle-path" stroke="#CDCDCD" fill="#FFFFFF" x="0" y="0" width="182" height="56" rx="2"></rect>
        <g id="logo" transform="translate(8.000000, 11.000000)" fill-rule="nonzero">
            <path d="M18.9875172,17.8017143 L18.9875172,7.33085714 L26.2054138,10.5525714 L18.9875172,17.8017143 Z M5.20774138,31.6411429 L14.058569,14.9742857 L17.9423276,18.852 L5.20774138,31.6411429 Z M0.160180862,0.233262857 L18.3753103,6.84571429 L18.3753103,18.4171429 L0.160180862,0.233262857 Z" id="body" fill="#82BEA0"></path>
            <polygon id="head" fill="#FA6441" points="29.8968621 6.84514286 19.4057069 6.84514286 32.8936034 12.8657143"></polygon>
        </g>
        <g id="top-text" fill-rule="nonzero">
        <path transform="translate(50.000,17.000) scale(0.012000,-0.012000)" d="M234 -15Q160 -15 106.5 2.5Q53 20 30 32L55 98Q69 91 94.5 80.0Q120 69 155.5 61.0Q191 53 234 53Q290 53 332.5 66.5Q375 80 399.5 110.5Q424 141 424 191Q424 250 394.0 280.5Q364 311 313.0 322.5Q262 334 198 334H146V400H211Q254 400 296.5 411.5Q339 423 367.0 451.0Q395 479 395 528Q395 577 356.0 609.0Q317 641 242 641Q194 641 151.5 628.5Q109 616 80 596L53 661Q81 679 131.5 693.5Q182 708 243 708Q312 708 364.5 689.0Q417 670 446.5 631.0Q476 592 476 530Q476 479 442.5 435.5Q409 392 344 375Q387 366 424.0 344.0Q461 322 484.0 284.0Q507 246 507 190Q507 116 472.5 71.0Q438 26 376.5 5.5Q315 -15 234 -15Z" fill="#111111"/>
        <path transform="translate(56.732,17.000) scale(0.012000,-0.012000)" d="M241 -11Q185 -11 141.0 5.0Q97 21 72.0 57.0Q47 93 47 152Q47 209 75.0 244.5Q103 280 152.5 296.0Q202 312 264 312Q292 312 323.0 307.0Q354 302 362 298V328Q362 362 353.5 393.5Q345 425 319.0 445.0Q293 465 240 465Q185 465 156.0 457.0Q127 449 113 444L103 508Q121 516 158.0 523.0Q195 530 245 530Q316 530 357.5 505.0Q399 480 417.5 436.5Q436 393 436 337V12Q415 7 361.0 -2.0Q307 -11 241 -11ZM252 53Q287 53 315.0 55.5Q343 58 362 62V236Q352 241 328.0 246.0Q304 251 266 251Q234 251 201.0 244.0Q168 237 145.5 216.0Q123 195 123 153Q123 97 158.0 75.0Q193 53 252 53Z" fill="#111111"/>
        <path transform="translate(62.900,17.000) scale(0.012000,-0.012000)" d="M255 -10Q220 -10 188.5 -6.5Q157 -3 130.5 2.0Q104 7 84 12V507Q102 512 127.5 517.0Q153 522 186.0 525.5Q219 529 258 529Q292 529 329.5 524.5Q367 520 400.5 505.5Q434 491 455.0 463.0Q476 435 476 388Q476 351 454.5 321.5Q433 292 397 278Q432 268 454.5 250.0Q477 232 488.5 207.0Q500 182 500 149Q500 99 480.0 68.0Q460 37 425.5 20.0Q391 3 347.0 -3.5Q303 -10 255 -10ZM261 53Q305 53 342.0 60.5Q379 68 401.5 89.0Q424 110 424 150Q424 203 382.5 223.0Q341 243 279 243H159V62Q170 59 201.0 56.0Q232 53 261 53ZM159 302H273Q330 302 365.5 321.0Q401 340 401 385Q401 423 380.0 440.0Q359 457 326.5 462.0Q294 467 258 467Q227 467 198.0 464.0Q169 461 159 458Z" fill="#111111"/>
        <path transform="translate(69.524,17.000) scale(0.012000,-0.012000)" d="M241 -11Q185 -11 141.0 5.0Q97 21 72.0 57.0Q47 93 47 152Q47 209 75.0 244.5Q103 280 152.5 296.0Q202 312 264 312Q292 312 323.0 307.0Q354 302 362 298V328Q362 362 353.5 393.5Q345 425 319.0 445.0Q293 465 240 465Q185 465 156.0 457.0Q127 449 113 444L103 508Q121 516 158.0 523.0Q195 530 245 530Q316 530 357.5 505.0Q399 480 417.5 436.5Q436 393 436 337V12Q415 7 361.0 -2.0Q307 -11 241 -11ZM252 53Q287 53 315.0 55.5Q343 58 362 62V236Q352 241 328.0 246.0Q304 251 266 251Q234 251 201.0 244.0Q168 237 145.5 216.0Q123 195 123 153Q123 97 158.0 75.0Q193 53 252 53Z" fill="#111111"/>
        <path transform="translate(75.692,17.000) scale(0.012000,-0.012000)" d="M84 0V518H159V300H425V518H500V0H425V237H159V0Z" fill="#111111"/>
        <path transform="translate(82.700,17.000) scale(0.012000,-0.012000)" d="M184 0V455H16V518H429V455H259V0Z" fill="#111111"/>
        <path transform="translate(88.028,17.000) scale(0.012000,-0.012000)" d="M241 -11Q185 -11 141.0 5.0Q97 21 72.0 57.0Q47 93 47 152Q47 209 75.0 244.5Q103 280 152.5 296.0Q202 312 264 312Q292 312 323.0 307.0Q354 302 362 298V328Q362 362 353.5 393.5Q345 425 319.0 445.0Q293 465 240 465Q185 465 156.0 457.0Q127 449 113 444L103 508Q121 516 158.0 523.0Q195 530 245 530Q316 530 357.5 505.0Q399 480 417.5 436.5Q436 393 436 337V12Q415 7 361.0 -2.0Q307 -11 241 -11ZM252 53Q287 53 315.0 55.5Q343 58 362 62V236Q352 241 328.0 246.0Q304 251 266 251Q234 251 201.0 244.0Q168 237 145.5 216.0Q123 195 123 153Q123 97 158.0 75.0Q193 53 252 53Z" fill="#111111"/>
        <path transform="translate(94.196,17.000) scale(0.012000,-0.012000)" d="M17 0Q44 47 82.5 97.5Q121 148 165.5 195.0Q210 242 255 276Q224 310 185.5 353.0Q147 396 110.0 439.5Q73 483 43 518H129Q168 470 219.5 410.0Q271 350 333 281V518H407V281Q469 349 520.5 409.5Q572 470 611 518H696Q667 483 630.0 439.5Q593 396 555.0 353.5Q517 311 485 277Q531 242 575.5 195.0Q620 148 658.5 97.5Q697 47 724 0H640Q618 35 588.5 73.0Q559 111 526.5 146.5Q494 182 463.0 210.5Q432 239 407 254V0H333V254Q308 239 277.0 210.5Q246 182 213.5 146.0Q181 110 151.5 72.5Q122 35 100 0Z" fill="#111111"/>
        <path transform="translate(103.088,17.000) scale(0.012000,-0.012000)" d="M84 0V518H158Q158 415 157.5 314.5Q157 214 157 119Q177 154 203.0 195.5Q229 237 259.0 281.5Q289 326 320.0 369.5Q351 413 381.5 451.0Q412 489 439 518H507V0H434Q434 72 434.0 143.5Q434 215 434.0 284.5Q434 354 434 420Q404 383 366.5 330.0Q329 277 289.5 217.5Q250 158 214.5 101.5Q179 45 153 0Z" fill="#111111"/>
        <path transform="translate(110.192,17.000) scale(0.012000,-0.012000)" d="M184 0V455H16V518H429V455H259V0Z" fill="#111111"/>
        <path transform="translate(115.520,17.000) scale(0.012000,-0.012000)" d="M84 0V518H158Q158 415 157.5 314.5Q157 214 157 119Q177 154 203.0 195.5Q229 237 259.0 281.5Q289 326 320.0 369.5Q351 413 381.5 451.0Q412 489 439 518H507V0H434Q434 72 434.0 143.5Q434 215 434.0 284.5Q434 354 434 420Q404 383 366.5 330.0Q329 277 289.5 217.5Q250 158 214.5 101.5Q179 45 153 0Z" fill="#111111"/>
        <path transform="translate(125.372,17.000) scale(0.012000,-0.012000)" d="M210 -12Q141 -12 96.5 -0.5Q52 11 37 18L55 84Q63 80 101.0 67.0Q139 54 208 54Q275 54 313.0 76.5Q351 99 351 143Q351 175 337.0 194.0Q323 213 301.0 223.0Q279 233 255.0 236.5Q231 240 211 240H134V301H207Q232 301 261.0 307.0Q290 313 311.0 330.5Q332 348 332 381Q332 414 314.0 432.0Q296 450 266.5 457.5Q237 465 204 465Q149 465 115.0 454.0Q81 443 67 436L51 501Q68 509 107.5 519.0Q147 529 205 529Q269 529 314.5 513.0Q360 497 384.0 465.5Q408 434 408 385Q408 342 383.0 314.5Q358 287 323 275Q371 261 399.0 228.0Q427 195 427 142Q427 103 412.5 74.0Q398 45 370.0 26.0Q342 7 301.5 -2.5Q261 -12 210 -12Z" fill="#111111"/>
        </g>
        <g id="bottom-text" fill-rule="nonzero">
        <path transform="translate(50.000,41.000) scale(0.024000,-0.024000)" d="M242 -15Q161 -15 107.5 3.0Q54 21 34 33L59 99Q80 87 126.5 70.0Q173 53 242 53Q321 53 364.0 81.5Q407 110 407 172Q407 220 383.5 247.5Q360 275 321.5 292.5Q283 310 237 328Q181 350 139.5 374.5Q98 399 75.5 434.5Q53 470 53 524Q53 584 80.0 625.0Q107 666 158.0 687.0Q209 708 279 708Q337 708 386.5 693.5Q436 679 463 662L437 597Q408 617 366.5 629.0Q325 641 278 641Q214 641 173.0 615.0Q132 589 132 530Q132 490 152.0 465.0Q172 440 207.0 423.0Q242 406 286 388Q343 366 388.5 341.5Q434 317 461.0 278.5Q488 240 488 175Q488 112 458.0 70.0Q428 28 373.0 6.5Q318 -15 242 -15Z" fill="#111111"/>
        <path transform="translate(62.576,41.000) scale(0.024000,-0.024000)" d="M84 0V500Q115 508 165.0 518.0Q215 528 285 528Q366 528 411.0 498.0Q456 468 474.5 414.5Q493 361 493 290V0H418V269Q418 340 405.0 382.0Q392 424 361.0 443.0Q330 462 275 462Q233 462 201.0 457.0Q169 452 159 449V0Z" fill="#111111"/>
        <path transform="translate(76.280,41.000) scale(0.024000,-0.024000)" d="M241 -11Q185 -11 141.0 5.0Q97 21 72.0 57.0Q47 93 47 152Q47 209 75.0 244.5Q103 280 152.5 296.0Q202 312 264 312Q292 312 323.0 307.0Q354 302 362 298V328Q362 362 353.5 393.5Q345 425 319.0 445.0Q293 465 240 465Q185 465 156.0 457.0Q127 449 113 444L103 508Q121 516 158.0 523.0Q195 530 245 530Q316 530 357.5 505.0Q399 480 417.5 436.5Q436 393 436 337V12Q415 7 361.0 -2.0Q307 -11 241 -11ZM252 53Q287 53 315.0 55.5Q343 58 362 62V236Q352 241 328.0 246.0Q304 251 266 251Q234 251 201.0 244.0Q168 237 145.5 216.0Q123 195 123 153Q123 97 158.0 75.0Q193 53 252 53Z" fill="#111111"/>
        <path transform="translate(88.616,41.000) scale(0.024000,-0.024000)" d="M84 -185V500Q104 507 131.5 513.0Q159 519 195.0 523.5Q231 528 275 528Q352 528 410.0 495.5Q468 463 500.0 402.5Q532 342 532 258Q532 179 504.5 118.0Q477 57 425.0 22.5Q373 -12 298 -12Q250 -12 213.5 1.5Q177 15 159 28V-185ZM289 55Q334 55 365.5 70.5Q397 86 416.5 114.0Q436 142 444.5 178.5Q453 215 453 257Q453 322 431.0 368.0Q409 414 368.5 438.0Q328 462 274 462Q230 462 201.5 457.5Q173 453 159 449V98Q176 85 211.0 70.0Q246 55 289 55Z" fill="#111111"/>
        <path transform="translate(108.152,41.000) scale(0.024000,-0.024000)" d="M242 -15Q161 -15 107.5 3.0Q54 21 34 33L59 99Q80 87 126.5 70.0Q173 53 242 53Q321 53 364.0 81.5Q407 110 407 172Q407 220 383.5 247.5Q360 275 321.5 292.5Q283 310 237 328Q181 350 139.5 374.5Q98 399 75.5 434.5Q53 470 53 524Q53 584 80.0 625.0Q107 666 158.0 687.0Q209 708 279 708Q337 708 386.5 693.5Q436 679 463 662L437 597Q408 617 366.5 629.0Q325 641 278 641Q214 641 173.0 615.0Q132 589 132 530Q132 490 152.0 465.0Q172 440 207.0 423.0Q242 406 286 388Q343 366 388.5 341.5Q434 317 461.0 278.5Q488 240 488 175Q488 112 458.0 70.0Q428 28 373.0 6.5Q318 -15 242 -15Z" fill="#111111"/>
        <path transform="translate(120.728,41.000) scale(0.024000,-0.024000)" d="M253 -11Q187 -11 149.0 12.0Q111 35 95.5 81.0Q80 127 80 196V668L155 681V518H358V455H155V190Q155 135 167.5 106.0Q180 77 203.5 66.5Q227 56 259 56Q297 56 322.5 65.0Q348 74 363 81L379 20Q364 11 329.5 0.0Q295 -11 253 -11Z" fill="#111111"/>
        <path transform="translate(130.160,41.000) scale(0.024000,-0.024000)" d="M292 -12Q223 -12 169.0 21.5Q115 55 84.5 116.0Q54 177 54 259Q54 341 84.5 401.5Q115 462 169.0 496.0Q223 530 292 530Q362 530 416.0 496.0Q470 462 500.5 401.5Q531 341 531 259Q531 177 500.5 116.0Q470 55 416.5 21.5Q363 -12 292 -12ZM292 55Q342 55 378.0 80.0Q414 105 433.5 151.0Q453 197 453 259Q453 321 433.5 367.0Q414 413 378.0 438.0Q342 463 292 463Q243 463 207.0 438.0Q171 413 151.5 367.0Q132 321 132 259Q132 197 151.5 151.0Q171 105 207.0 80.0Q243 55 292 55Z" fill="#111111"/>
        <path transform="translate(144.200,41.000) scale(0.024000,-0.024000)" d="M84 0V494Q110 505 155.5 516.5Q201 528 265 528Q286 528 306.5 525.5Q327 523 343.5 519.5Q360 516 368 513L353 449Q344 453 319.0 457.5Q294 462 255 462Q217 462 192.0 456.5Q167 451 159 447V0Z" fill="#111111"/>
        <path transform="translate(153.296,41.000) scale(0.024000,-0.024000)" d="M311 -11Q220 -11 163.5 24.0Q107 59 80.5 120.0Q54 181 54 259Q54 350 87.0 410.0Q120 470 172.5 500.0Q225 530 283 530Q348 530 395.5 502.5Q443 475 469.0 418.5Q495 362 495 275Q495 268 494.5 258.5Q494 249 493 241H132Q136 153 179.5 104.5Q223 56 315 56Q366 56 398.5 65.5Q431 75 445 82L458 19Q444 11 403.5 0.0Q363 -11 311 -11ZM134 302H419Q418 353 402.0 389.5Q386 426 356.5 445.5Q327 465 284 465Q240 465 207.0 442.0Q174 419 155.5 382.0Q137 345 134 302Z" fill="#111111"/>
        </g>
    </g>
</svg>